<svg xmlns:xlink="http://www.w3.org/1999/xlink" id="eCRMTGayomi1" xmlns="http://www.w3.org/2000/svg" viewBox="15 5 140 140" shape-rendering="geometricPrecision" text-rendering="geometricPrecision">
    <style>
        <![CDATA[#eCRMTGayomi3_ts {animation: eCRMTGayomi3_ts__ts 2000ms linear infinite normal forwards}@keyframes eCRMTGayomi3_ts__ts { 0% {transform: translate(83px,75px) scale(1,1)} 10% {transform: translate(83px,75px) scale(1,1)} 33.333333% {transform: translate(83px,75px) scale(1.19566,1.195659)} 100% {transform: translate(83px,75px) scale(1.19566,1.195659)}} #eCRMTGayomi3 {animation: eCRMTGayomi3_c_o 2000ms linear infinite normal forwards}@keyframes eCRMTGayomi3_c_o { 0% {opacity: 1} 10% {opacity: 1} 33.333333% {opacity: 0} 100% {opacity: 0}} #eCRMTGayomi4_ts {animation: eCRMTGayomi4_ts__ts 2000ms linear infinite normal forwards}@keyframes eCRMTGayomi4_ts__ts { 0% {transform: translate(83px,75px) scale(1,1)} 16.666667% {transform: translate(83px,75px) scale(1.190479,1.190476)} 100% {transform: translate(83px,75px) scale(1.190479,1.190476)}} #eCRMTGayomi4 {animation: eCRMTGayomi4_c_o 2000ms linear infinite normal forwards}@keyframes eCRMTGayomi4_c_o { 0% {opacity: 1} 16.666667% {opacity: 0} 100% {opacity: 0}}]]></style>
    <g transform="matrix(.768891 0 0 0.768891 19.182047 17.333175)">
        <g id="eCRMTGayomi3_ts" transform="translate(83,75) scale(1,1)">
            <circle id="eCRMTGayomi3" r="63" transform="translate(0,0)" fill="#fff" fill-opacity="0.6"/>
        </g>
        <g id="eCRMTGayomi4_ts" transform="translate(83,75) scale(1,1)">
            <circle id="eCRMTGayomi4" r="63" transform="translate(0,0)" fill="#fff" fill-opacity="0.6"/>
        </g>
    </g>
    <circle r="52" transform="matrix(.768891 0 0 0.768891 83 75)" opacity="0.95" fill="#fff"/>
    <g transform="matrix(.837744 0 0 0.837744 37.950414 33.077801)">
        <path d="M62.85,48L46.34,36c-.748053-.549323-1.742281-.628807-2.568106-.205307s-1.34146,1.277273-1.331894,2.205307v24.07c-.009566.928034.506069,1.781807,1.331894,2.205307s1.820053.344016,2.568106-.205307L62.85,52c.649062-.459243,1.034903-1.204899,1.034903-2s-.385841-1.540757-1.034903-2Z"
              transform="matrix(.870234 0 0 0.870234 10.0054 5.492843)" fill="#222"/>
    </g>
</svg>
